<svg xmlns="http://www.w3.org/2000/svg" xmlns:xlink="http://www.w3.org/1999/xlink" width="500" zoomAndPan="magnify" viewBox="0 0 375 374.999991" height="500" preserveAspectRatio="xMidYMid meet" version="1.0"><defs><g/><clipPath id="ba0c0dfb87"><path d="M 192 91.417969 L 260 91.417969 L 260 232 L 192 232 Z M 192 91.417969 " clip-rule="nonzero"/></clipPath><clipPath id="5329e76299"><path d="M 208 109 L 285.761719 109 L 285.761719 242.917969 L 208 242.917969 Z M 208 109 " clip-rule="nonzero"/></clipPath><clipPath id="cc6cc9e393"><path d="M 115 91.417969 L 183 91.417969 L 183 232 L 115 232 Z M 115 91.417969 " clip-rule="nonzero"/></clipPath><clipPath id="8653b30098"><path d="M 89.261719 109 L 167 109 L 167 242.917969 L 89.261719 242.917969 Z M 89.261719 109 " clip-rule="nonzero"/></clipPath></defs><g clip-path="url(#ba0c0dfb87)"><path fill="#ffc0cb" d="M 192.339844 118.613281 C 192.339844 118.613281 208.835938 101.238281 219.945312 96.710938 C 231.058594 92.179688 259.007812 91.441406 259.007812 91.441406 L 259.007812 204.296875 C 259.007812 204.296875 233.601562 205.59375 222.492188 210.121094 C 211.382812 214.648438 192.339844 231.472656 192.339844 231.472656 Z M 192.339844 118.613281 " fill-opacity="1" fill-rule="nonzero"/></g><path fill="#ffc0cb" d="M 273.007812 99.753906 C 273.007812 99.753906 268.703125 99.878906 262.828125 100.285156 L 262.828125 208.734375 C 262.828125 208.734375 237.421875 210.023438 226.308594 214.554688 C 220.527344 216.910156 206.886719 224.8125 200.609375 229.722656 L 197.429688 239.785156 C 197.429688 239.785156 219.015625 227.957031 230.128906 223.425781 C 241.238281 218.898438 273.007812 212.613281 273.007812 212.613281 Z M 273.007812 99.753906 " fill-opacity="1" fill-rule="nonzero"/><g clip-path="url(#5329e76299)"><path fill="#ffc0cb" d="M 285.734375 109.183594 C 285.734375 109.183594 282.617188 109.273438 278.097656 109.546875 L 278.097656 217.054688 C 278.097656 217.054688 252.691406 218.34375 241.582031 222.871094 C 234.980469 225.5625 219.878906 230.914062 213.335938 236.175781 L 208.246094 242.558594 C 208.246094 242.558594 238.105469 232.394531 249.21875 227.867188 C 260.328125 223.335938 285.734375 222.039062 285.734375 222.039062 Z M 285.734375 109.183594 " fill-opacity="1" fill-rule="nonzero"/></g><g clip-path="url(#cc6cc9e393)"><path fill="#ffc0cb" d="M 182.65625 118.613281 C 182.65625 118.613281 166.164062 101.238281 155.050781 96.710938 C 143.941406 92.179688 115.992188 91.441406 115.992188 91.441406 L 115.992188 204.296875 C 115.992188 204.296875 141.394531 205.59375 152.503906 210.121094 C 163.617188 214.648438 182.65625 231.472656 182.65625 231.472656 Z M 182.65625 118.613281 " fill-opacity="1" fill-rule="nonzero"/></g><path fill="#ffc0cb" d="M 101.988281 99.753906 C 101.988281 99.753906 106.292969 99.878906 112.171875 100.285156 L 112.171875 208.734375 C 112.171875 208.734375 137.574219 210.023438 148.6875 214.554688 C 154.46875 216.910156 168.109375 224.8125 174.386719 229.722656 L 177.566406 239.785156 C 177.566406 239.785156 155.980469 227.957031 144.867188 223.425781 C 133.757812 218.898438 101.992188 212.617188 101.992188 212.617188 Z M 101.988281 99.753906 " fill-opacity="1" fill-rule="nonzero"/><g clip-path="url(#8653b30098)"><path fill="#ffc0cb" d="M 89.265625 109.183594 C 89.265625 109.183594 92.378906 109.273438 96.898438 109.546875 L 96.898438 217.054688 C 96.898438 217.054688 122.304688 218.34375 133.417969 222.871094 C 140.015625 225.5625 155.117188 230.914062 161.660156 236.175781 L 166.75 242.558594 C 166.75 242.558594 136.890625 232.394531 125.78125 227.867188 C 114.671875 223.339844 89.265625 222.042969 89.265625 222.042969 Z M 89.265625 109.183594 " fill-opacity="1" fill-rule="nonzero"/></g><g fill="#ffc0cb" fill-opacity="1"><g transform="translate(45.512277, 297.739317)"><g><path d="M 6.953125 0 L 3.59375 0 L 3.59375 -32.640625 L 6.953125 -32.640625 L 6.953125 -17.328125 L 17.953125 -32.640625 L 22.265625 -32.640625 L 10.265625 -16.3125 L 22.265625 0 L 17.953125 0 L 6.953125 -15.3125 Z M 6.953125 0 "/></g></g></g><g fill="#ffc0cb" fill-opacity="1"><g transform="translate(68.264241, 297.739317)"><g><path d="M 32.359375 -16.421875 C 32.359375 -20.097656 31.046875 -23.25 28.421875 -25.875 C 25.796875 -28.5 22.625 -29.8125 18.90625 -29.8125 C 15.226562 -29.8125 12.078125 -28.5 9.453125 -25.875 C 6.828125 -23.25 5.515625 -20.097656 5.515625 -16.421875 C 5.515625 -12.703125 6.828125 -9.53125 9.453125 -6.90625 C 12.078125 -4.28125 15.226562 -2.96875 18.90625 -2.96875 C 22.625 -2.96875 25.796875 -4.28125 28.421875 -6.90625 C 31.046875 -9.53125 32.359375 -12.703125 32.359375 -16.421875 Z M 35.71875 -16.421875 C 35.71875 -14.109375 35.285156 -11.929688 34.421875 -9.890625 C 33.523438 -7.835938 32.320312 -6.0625 30.8125 -4.5625 C 29.28125 -3.019531 27.488281 -1.816406 25.4375 -0.953125 C 23.394531 -0.0546875 21.21875 0.390625 18.90625 0.390625 C 16.601562 0.390625 14.445312 -0.0546875 12.4375 -0.953125 C 10.382812 -1.816406 8.609375 -3.019531 7.109375 -4.5625 C 5.566406 -6.0625 4.363281 -7.835938 3.5 -9.890625 C 2.601562 -11.929688 2.15625 -14.109375 2.15625 -16.421875 C 2.15625 -18.722656 2.601562 -20.894531 3.5 -22.9375 C 4.363281 -24.988281 5.566406 -26.765625 7.109375 -28.265625 C 8.609375 -29.773438 10.382812 -30.976562 12.4375 -31.875 C 14.445312 -32.738281 16.601562 -33.171875 18.90625 -33.171875 C 21.21875 -33.171875 23.394531 -32.738281 25.4375 -31.875 C 27.488281 -30.976562 29.28125 -29.773438 30.8125 -28.265625 C 32.320312 -26.765625 33.523438 -24.988281 34.421875 -22.9375 C 35.285156 -20.894531 35.71875 -18.722656 35.71875 -16.421875 Z M 35.71875 -16.421875 "/></g></g></g><g fill="#ffc0cb" fill-opacity="1"><g transform="translate(106.136172, 297.739317)"><g><path d="M 33.703125 0 L 28.609375 -23.234375 L 18.8125 1.921875 L 8.96875 -23.234375 L 3.9375 0 L 0.484375 0 L 8.109375 -34.796875 L 18.8125 -6.859375 L 29.515625 -34.796875 L 37.109375 0 Z M 33.703125 0 "/></g></g></g><g fill="#ffc0cb" fill-opacity="1"><g transform="translate(143.7201, 297.739317)"><g><path d="M 6.953125 -16.171875 L 14.546875 -16.171875 C 16.429688 -16.171875 17.984375 -16.8125 19.203125 -18.09375 C 20.453125 -19.375 21.078125 -20.972656 21.078125 -22.890625 C 21.078125 -24.816406 20.484375 -26.382812 19.296875 -27.59375 C 18.109375 -28.8125 16.523438 -29.421875 14.546875 -29.421875 L 6.953125 -29.421875 Z M 24.4375 -22.796875 C 24.4375 -19.953125 23.425781 -17.585938 21.40625 -15.703125 C 19.425781 -13.835938 16.976562 -12.90625 14.0625 -12.90625 L 6.953125 -12.90625 L 6.953125 0 L 3.59375 0 L 3.59375 -32.640625 L 14.0625 -32.640625 C 16.945312 -32.640625 19.394531 -31.726562 21.40625 -29.90625 C 23.425781 -28.050781 24.4375 -25.679688 24.4375 -22.796875 Z M 24.4375 -22.796875 "/></g></g></g><g fill="#ffc0cb" fill-opacity="1"><g transform="translate(169.112055, 297.739317)"><g><path d="M 22.984375 0 L 3.59375 0 L 3.59375 -32.640625 L 22.984375 -32.640625 L 22.984375 -29.515625 L 6.953125 -29.515625 L 6.953125 -17.90625 L 22.515625 -17.90625 L 22.515625 -14.734375 L 6.953125 -14.734375 L 6.953125 -3.125 L 22.984375 -3.125 Z M 22.984375 0 "/></g></g></g><g fill="#ffc0cb" fill-opacity="1"><g transform="translate(195.704003, 297.739317)"><g><path d="M 0.953125 -29.609375 L 0.953125 -32.734375 L 20.15625 -32.734375 L 20.15625 -29.609375 L 12.234375 -29.609375 L 12.234375 -0.09375 L 8.875 -0.09375 L 8.875 -29.609375 Z M 0.953125 -29.609375 "/></g></g></g><g fill="#ffc0cb" fill-opacity="1"><g transform="translate(216.82397, 297.739317)"><g><path d="M 8.875 -12 L 20.734375 -12 L 14.828125 -27.03125 Z M 29.140625 0 L 25.484375 0 L 21.984375 -8.875 L 7.625 -8.875 L 4.125 0 L 0.484375 0 L 14.828125 -34.890625 Z M 29.140625 0 "/></g></g></g><g fill="#ffc0cb" fill-opacity="1"><g transform="translate(246.439916, 297.739317)"><g><path d="M 6.953125 -24.046875 L 6.953125 0 L 3.59375 0 L 3.59375 -34.703125 L 21.9375 -8.640625 L 21.9375 -32.640625 L 25.296875 -32.640625 L 25.296875 2.015625 Z M 6.953125 -24.046875 "/></g></g></g><g fill="#ffc0cb" fill-opacity="1"><g transform="translate(275.335857, 297.739317)"><g><path d="M 12.671875 -15.40625 C 6.015625 -16.945312 2.6875 -19.796875 2.6875 -23.953125 C 2.6875 -27.023438 3.757812 -29.328125 5.90625 -30.859375 C 8.050781 -32.367188 10.5625 -33.125 13.4375 -33.125 C 19.800781 -33.125 23.578125 -30.753906 24.765625 -26.015625 L 21.125 -26.015625 C 20.476562 -28.828125 17.914062 -30.234375 13.4375 -30.234375 C 10.300781 -30.234375 8.109375 -29.304688 6.859375 -27.453125 C 6.378906 -26.753906 6.140625 -25.875 6.140625 -24.8125 C 6.140625 -22.800781 7.226562 -21.25 9.40625 -20.15625 C 10.425781 -19.613281 12.601562 -18.910156 15.9375 -18.046875 C 19.257812 -17.179688 21.675781 -16.222656 23.1875 -15.171875 C 25.257812 -13.691406 26.296875 -11.625 26.296875 -8.96875 C 26.296875 -5.675781 25.003906 -3.179688 22.421875 -1.484375 C 20.242188 -0.078125 17.554688 0.625 14.359375 0.625 C 7.117188 0.625 2.925781 -2.125 1.78125 -7.625 L 5.765625 -7.625 C 6.367188 -4.175781 9.234375 -2.453125 14.359375 -2.453125 C 18.003906 -2.453125 20.546875 -3.457031 21.984375 -5.46875 C 22.554688 -6.269531 22.84375 -7.359375 22.84375 -8.734375 C 22.84375 -10.078125 22.316406 -11.179688 21.265625 -12.046875 C 19.765625 -13.265625 16.898438 -14.382812 12.671875 -15.40625 Z M 12.671875 -15.40625 "/></g></g></g><g fill="#ffc0cb" fill-opacity="1"><g transform="translate(302.887803, 297.739317)"><g><path d="M 22.984375 0 L 3.59375 0 L 3.59375 -32.640625 L 22.984375 -32.640625 L 22.984375 -29.515625 L 6.953125 -29.515625 L 6.953125 -17.90625 L 22.515625 -17.90625 L 22.515625 -14.734375 L 6.953125 -14.734375 L 6.953125 -3.125 L 22.984375 -3.125 Z M 22.984375 0 "/></g></g></g><g fill="#ffc0cb" fill-opacity="1"><g transform="translate(117.606023, 69.983971)"><g><path d="M 24.90625 -9.125 C 24.90625 -7.78125 24.601562 -6.5 24 -5.28125 C 23.394531 -4.0625 22.578125 -3.066406 21.546875 -2.296875 C 19.566406 -0.765625 16.910156 0 13.578125 0 L 3.59375 0 L 3.59375 -32.640625 L 12.4375 -32.640625 C 17.195312 -32.640625 20.300781 -31.164062 21.75 -28.21875 C 22.257812 -27.164062 22.515625 -26.097656 22.515625 -25.015625 C 22.515625 -23.921875 22.429688 -23.070312 22.265625 -22.46875 C 22.078125 -21.820312 21.820312 -21.210938 21.5 -20.640625 C 20.769531 -19.390625 19.828125 -18.507812 18.671875 -18 C 20.585938 -17.488281 22.109375 -16.460938 23.234375 -14.921875 C 24.347656 -13.359375 24.90625 -11.425781 24.90625 -9.125 Z M 19.15625 -24.484375 C 19.15625 -27.773438 16.914062 -29.421875 12.4375 -29.421875 L 6.953125 -29.421875 L 6.953125 -19.25 L 13.390625 -19.25 C 15.117188 -19.25 16.507812 -19.679688 17.5625 -20.546875 C 18.625 -21.410156 19.15625 -22.722656 19.15625 -24.484375 Z M 21.546875 -9.75 C 21.546875 -10.707031 21.375 -11.550781 21.03125 -12.28125 C 20.644531 -13.019531 20.160156 -13.660156 19.578125 -14.203125 C 18.296875 -15.328125 16.796875 -15.890625 15.078125 -15.890625 L 6.953125 -15.890625 L 6.953125 -3.21875 L 14.546875 -3.21875 C 16.585938 -3.21875 18.265625 -3.804688 19.578125 -4.984375 C 20.890625 -6.203125 21.546875 -7.789062 21.546875 -9.75 Z M 21.546875 -9.75 "/></g></g></g><g fill="#ffc0cb" fill-opacity="1"><g transform="translate(143.477977, 69.983971)"><g><path d="M 6.953125 0 L 3.59375 0 L 3.59375 -32.640625 L 6.953125 -32.640625 Z M 6.953125 0 "/></g></g></g><g fill="#ffc0cb" fill-opacity="1"><g transform="translate(154.037955, 69.983971)"><g><path d="M 12.671875 -15.40625 C 6.015625 -16.945312 2.6875 -19.796875 2.6875 -23.953125 C 2.6875 -27.023438 3.757812 -29.328125 5.90625 -30.859375 C 8.050781 -32.367188 10.5625 -33.125 13.4375 -33.125 C 19.800781 -33.125 23.578125 -30.753906 24.765625 -26.015625 L 21.125 -26.015625 C 20.476562 -28.828125 17.914062 -30.234375 13.4375 -30.234375 C 10.300781 -30.234375 8.109375 -29.304688 6.859375 -27.453125 C 6.378906 -26.753906 6.140625 -25.875 6.140625 -24.8125 C 6.140625 -22.800781 7.226562 -21.25 9.40625 -20.15625 C 10.425781 -19.613281 12.601562 -18.910156 15.9375 -18.046875 C 19.257812 -17.179688 21.675781 -16.222656 23.1875 -15.171875 C 25.257812 -13.691406 26.296875 -11.625 26.296875 -8.96875 C 26.296875 -5.675781 25.003906 -3.179688 22.421875 -1.484375 C 20.242188 -0.078125 17.554688 0.625 14.359375 0.625 C 7.117188 0.625 2.925781 -2.125 1.78125 -7.625 L 5.765625 -7.625 C 6.367188 -4.175781 9.234375 -2.453125 14.359375 -2.453125 C 18.003906 -2.453125 20.546875 -3.457031 21.984375 -5.46875 C 22.554688 -6.269531 22.84375 -7.359375 22.84375 -8.734375 C 22.84375 -10.078125 22.316406 -11.179688 21.265625 -12.046875 C 19.765625 -13.265625 16.898438 -14.382812 12.671875 -15.40625 Z M 12.671875 -15.40625 "/></g></g></g><g fill="#ffc0cb" fill-opacity="1"><g transform="translate(181.589901, 69.983971)"><g><path d="M 8.875 -12 L 20.734375 -12 L 14.828125 -27.03125 Z M 29.140625 0 L 25.484375 0 L 21.984375 -8.875 L 7.625 -8.875 L 4.125 0 L 0.484375 0 L 14.828125 -34.890625 Z M 29.140625 0 "/></g></g></g><g fill="#ffc0cb" fill-opacity="1"><g transform="translate(211.205847, 69.983971)"><g><path d="M 6.953125 -3.359375 L 18.625 -3.359375 L 18.625 0 L 3.59375 0 L 3.59375 -32.640625 L 6.953125 -32.640625 Z M 6.953125 -3.359375 "/></g></g></g><g fill="#ffc0cb" fill-opacity="1"><g transform="translate(230.789811, 69.983971)"><g><path d="M 22.984375 0 L 3.59375 0 L 3.59375 -32.640625 L 22.984375 -32.640625 L 22.984375 -29.515625 L 6.953125 -29.515625 L 6.953125 -17.90625 L 22.515625 -17.90625 L 22.515625 -14.734375 L 6.953125 -14.734375 L 6.953125 -3.125 L 22.984375 -3.125 Z M 22.984375 0 "/></g></g></g></svg>