<svg xmlns="http://www.w3.org/2000/svg" xmlns:xlink="http://www.w3.org/1999/xlink" width="500" zoomAndPan="magnify" viewBox="0 0 375 374.999991" height="500" preserveAspectRatio="xMidYMid meet" version="1.0"><defs><clipPath id="a204c38a1e"><path d="M 192 91.417969 L 260 91.417969 L 260 232 L 192 232 Z M 192 91.417969 " clip-rule="nonzero"/></clipPath><clipPath id="7556c7396c"><path d="M 208 109 L 285.761719 109 L 285.761719 242.917969 L 208 242.917969 Z M 208 109 " clip-rule="nonzero"/></clipPath><clipPath id="22d890ad9d"><path d="M 115 91.417969 L 183 91.417969 L 183 232 L 115 232 Z M 115 91.417969 " clip-rule="nonzero"/></clipPath><clipPath id="3cc4f7c2da"><path d="M 89.261719 109 L 167 109 L 167 242.917969 L 89.261719 242.917969 Z M 89.261719 109 " clip-rule="nonzero"/></clipPath></defs><g clip-path="url(#a204c38a1e)"><path fill="#ffc0cb" d="M 192.339844 118.613281 C 192.339844 118.613281 208.835938 101.238281 219.945312 96.710938 C 231.058594 92.179688 259.007812 91.441406 259.007812 91.441406 L 259.007812 204.296875 C 259.007812 204.296875 233.601562 205.59375 222.492188 210.121094 C 211.382812 214.648438 192.339844 231.472656 192.339844 231.472656 Z M 192.339844 118.613281 " fill-opacity="1" fill-rule="nonzero"/></g><path fill="#ffc0cb" d="M 273.007812 99.753906 C 273.007812 99.753906 268.703125 99.878906 262.828125 100.285156 L 262.828125 208.734375 C 262.828125 208.734375 237.421875 210.023438 226.308594 214.554688 C 220.527344 216.910156 206.886719 224.8125 200.609375 229.722656 L 197.429688 239.785156 C 197.429688 239.785156 219.015625 227.957031 230.128906 223.425781 C 241.238281 218.898438 273.007812 212.613281 273.007812 212.613281 Z M 273.007812 99.753906 " fill-opacity="1" fill-rule="nonzero"/><g clip-path="url(#7556c7396c)"><path fill="#ffc0cb" d="M 285.734375 109.183594 C 285.734375 109.183594 282.617188 109.273438 278.097656 109.546875 L 278.097656 217.054688 C 278.097656 217.054688 252.691406 218.34375 241.582031 222.871094 C 234.980469 225.5625 219.878906 230.914062 213.335938 236.175781 L 208.246094 242.558594 C 208.246094 242.558594 238.105469 232.394531 249.21875 227.867188 C 260.328125 223.335938 285.734375 222.039062 285.734375 222.039062 Z M 285.734375 109.183594 " fill-opacity="1" fill-rule="nonzero"/></g><g clip-path="url(#22d890ad9d)"><path fill="#ffc0cb" d="M 182.65625 118.613281 C 182.65625 118.613281 166.164062 101.238281 155.050781 96.710938 C 143.941406 92.179688 115.992188 91.441406 115.992188 91.441406 L 115.992188 204.296875 C 115.992188 204.296875 141.394531 205.59375 152.503906 210.121094 C 163.617188 214.648438 182.65625 231.472656 182.65625 231.472656 Z M 182.65625 118.613281 " fill-opacity="1" fill-rule="nonzero"/></g><path fill="#ffc0cb" d="M 101.988281 99.753906 C 101.988281 99.753906 106.292969 99.878906 112.171875 100.285156 L 112.171875 208.734375 C 112.171875 208.734375 137.574219 210.023438 148.6875 214.554688 C 154.46875 216.910156 168.109375 224.8125 174.386719 229.722656 L 177.566406 239.785156 C 177.566406 239.785156 155.980469 227.957031 144.867188 223.425781 C 133.757812 218.898438 101.992188 212.617188 101.992188 212.617188 Z M 101.988281 99.753906 " fill-opacity="1" fill-rule="nonzero"/><g clip-path="url(#3cc4f7c2da)"><path fill="#ffc0cb" d="M 89.265625 109.183594 C 89.265625 109.183594 92.378906 109.273438 96.898438 109.546875 L 96.898438 217.054688 C 96.898438 217.054688 122.304688 218.34375 133.417969 222.871094 C 140.015625 225.5625 155.117188 230.914062 161.660156 236.175781 L 166.75 242.558594 C 166.75 242.558594 136.890625 232.394531 125.78125 227.867188 C 114.671875 223.339844 89.265625 222.042969 89.265625 222.042969 Z M 89.265625 109.183594 " fill-opacity="1" fill-rule="nonzero"/></g></svg>